<svg width="82" height="82" viewBox="0 0 82 82" fill="none" xmlns="http://www.w3.org/2000/svg">
<rect x="2.11942" y="2.27002" width="78" height="78" rx="39" fill="white"/>
<g clip-path="url(#clip0_201_77)">
<path d="M41.1194 41.27C45.9524 41.27 49.8694 37.353 49.8694 32.52C49.8694 27.687 45.9524 23.77 41.1194 23.77C36.2864 23.77 32.3694 27.687 32.3694 32.52C32.3694 37.353 36.2864 41.27 41.1194 41.27ZM47.6682 43.4985L44.4007 56.5825L42.2132 47.2856L44.4007 43.4575H37.8382L40.0257 47.2856L37.8382 56.5825L34.5706 43.4985C29.6966 43.731 25.8069 47.7163 25.8069 52.645V55.4888C25.8069 57.3003 27.2766 58.77 29.0882 58.77H53.1507C54.9622 58.77 56.4319 57.3003 56.4319 55.4888V52.645C56.4319 47.7163 52.5423 43.731 47.6682 43.4985Z" fill="#F5BE27"/>
</g>
<rect x="2.11942" y="2.27002" width="78" height="78" rx="39" stroke="#F5BE27" stroke-width="3"/>
<defs>
<clipPath id="clip0_201_77">
<rect width="35" height="35" fill="white" transform="translate(23.6194 23.77)"/>
</clipPath>
</defs>
</svg>
