<svg width="82" height="82" viewBox="0 0 82 82" fill="none" xmlns="http://www.w3.org/2000/svg">
<g clip-path="url(#clip0_201_43)">
<path d="M28.8694 39.7231C30.7999 39.7231 32.3694 38.1536 32.3694 36.2231C32.3694 34.2927 30.7999 32.7231 28.8694 32.7231C26.9389 32.7231 25.3694 34.2927 25.3694 36.2231C25.3694 38.1536 26.9389 39.7231 28.8694 39.7231ZM53.3694 39.7231C55.2999 39.7231 56.8694 38.1536 56.8694 36.2231C56.8694 34.2927 55.2999 32.7231 53.3694 32.7231C51.4389 32.7231 49.8694 34.2927 49.8694 36.2231C49.8694 38.1536 51.4389 39.7231 53.3694 39.7231ZM55.1194 41.4731H51.6194C50.6569 41.4731 49.7874 41.8614 49.153 42.4903C51.3569 43.6989 52.921 45.881 53.26 48.4731H56.8694C57.8374 48.4731 58.6194 47.6911 58.6194 46.7231V44.9731C58.6194 43.0427 57.0499 41.4731 55.1194 41.4731ZM41.1194 41.4731C44.5046 41.4731 47.2444 38.7333 47.2444 35.3481C47.2444 31.963 44.5046 29.2231 41.1194 29.2231C37.7343 29.2231 34.9944 31.963 34.9944 35.3481C34.9944 38.7333 37.7343 41.4731 41.1194 41.4731ZM45.3194 43.2231H44.8655C43.728 43.77 42.4647 44.0981 41.1194 44.0981C39.7741 44.0981 38.5163 43.77 37.3733 43.2231H36.9194C33.4413 43.2231 30.6194 46.045 30.6194 49.5231V51.0981C30.6194 52.5474 31.7952 53.7231 33.2444 53.7231H48.9944C50.4436 53.7231 51.6194 52.5474 51.6194 51.0981V49.5231C51.6194 46.045 48.7975 43.2231 45.3194 43.2231ZM33.0858 42.4903C32.4514 41.8614 31.5819 41.4731 30.6194 41.4731H27.1194C25.1889 41.4731 23.6194 43.0427 23.6194 44.9731V46.7231C23.6194 47.6911 24.4014 48.4731 25.3694 48.4731H28.9733C29.3179 45.881 30.8819 43.6989 33.0858 42.4903Z" fill="#F5BE27"/>
</g>
<rect x="2.11942" y="2.47314" width="78" height="78" rx="39" stroke="#F5BE27" stroke-width="3"/>
<defs>
<clipPath id="clip0_201_43">
<rect width="35" height="35" fill="white" transform="translate(23.6194 23.9731)"/>
</clipPath>
</defs>
</svg>
