<svg width="82" height="82" viewBox="0 0 82 82" fill="none" xmlns="http://www.w3.org/2000/svg">
<rect x="2.13504" y="2.27002" width="78" height="78" rx="39" fill="white"/>
<g clip-path="url(#clip0_201_61)">
<path d="M52.0657 44.8452L53.6995 40.5659C53.9729 39.8481 53.4466 39.0825 52.6741 39.0825H48.6751C49.427 37.7905 49.8919 36.3071 49.8919 34.7075V34.687C52.5716 34.1538 54.2669 33.3813 54.2669 32.52C54.2669 31.6108 52.4007 30.8042 49.4749 30.2641C48.846 28.022 47.6292 25.7661 46.6995 24.604C46.0501 23.7905 44.929 23.5376 43.9993 24.0024L42.1126 24.9458C41.4973 25.2534 40.7727 25.2534 40.1575 24.9458L38.2708 24.0024C37.3411 23.5376 36.22 23.7905 35.5706 24.604C34.6477 25.7661 33.4241 28.022 32.7952 30.2641C29.8763 30.8042 28.01 31.6108 28.01 32.52C28.01 33.3813 29.7054 34.1538 32.385 34.687V34.7075C32.385 36.3071 32.8499 37.7905 33.6018 39.0825H29.6712C28.885 39.0825 28.3587 39.8823 28.6663 40.6069L30.43 44.7221C27.6888 46.3149 25.8225 49.2475 25.8225 52.645V55.7075C25.8225 57.396 27.1966 58.77 28.885 58.77H53.385C55.0735 58.77 56.4475 57.396 56.4475 55.7075V52.645C56.4475 49.3364 54.6839 46.4653 52.0657 44.8452ZM37.8538 56.5825L35.01 43.4575L38.4007 45.645L40.0413 48.3794L37.8538 56.5825ZM44.4163 56.5825L42.2288 48.3794L43.8694 45.645L47.26 43.4575L44.4163 56.5825ZM47.2669 36.1772C47.0003 36.9907 46.7884 37.8589 46.1389 38.4604C45.4485 39.0962 42.8577 39.9917 41.7639 36.7514C41.5725 36.1772 40.7112 36.1772 40.513 36.7514C39.3509 40.1831 36.6848 38.9663 36.138 38.4604C35.4886 37.8589 35.2698 36.9907 35.01 36.1772C34.9554 36.0063 34.5794 35.7876 34.5794 35.7807V35.0425C36.5139 35.2886 38.7493 35.4389 41.1419 35.4389C43.5345 35.4389 45.7698 35.2954 47.7044 35.0425V35.7807C47.6975 35.7876 47.3216 35.9995 47.2669 36.1772Z" fill="#F5BE27"/>
</g>
<rect x="2.13504" y="2.27002" width="78" height="78" rx="39" stroke="#F5BE27" stroke-width="3"/>
<defs>
<clipPath id="clip0_201_61">
<rect width="35" height="35" fill="white" transform="translate(23.635 23.77)"/>
</clipPath>
</defs>
</svg>
