<svg width="82" height="82" viewBox="0 0 82 82" fill="none" xmlns="http://www.w3.org/2000/svg">
<g clip-path="url(#clip0_201_51)">
<path d="M54.2723 45.3619H36.4597L36.8574 47.3064H53.1675C54.1033 47.3064 54.797 48.1754 54.5896 49.0879L54.2543 50.563C55.3901 51.1143 56.1732 52.2786 56.1732 53.6258C56.1732 55.5218 54.6226 57.0556 52.7204 57.0282C50.9082 57.0022 49.4178 55.5316 49.3689 53.7198C49.3422 52.7302 49.7387 51.8332 50.3899 51.1952H37.6509C38.2815 51.8129 38.6732 52.6734 38.6732 53.6258C38.6732 55.5589 37.0613 57.1155 35.1082 57.0248C33.374 56.9443 31.9636 55.5431 31.8724 53.8094C31.8021 52.4705 32.5066 51.2904 33.5769 50.6748L29.3085 29.8064H25.0621C24.2567 29.8064 23.6038 29.1535 23.6038 28.348V27.3758C23.6038 26.5704 24.2567 25.9175 25.0621 25.9175H31.2922C31.9849 25.9175 32.5821 26.4049 32.7209 27.0835L33.2779 29.8064H57.1448C58.0806 29.8064 58.7743 30.6754 58.5669 31.5879L55.6944 44.2268C55.5435 44.8908 54.9532 45.3619 54.2723 45.3619ZM48.0934 37.5841H45.4788V33.9383C45.4788 33.5356 45.1523 33.2091 44.7496 33.2091H43.2913C42.8886 33.2091 42.5621 33.5356 42.5621 33.9383V37.5841H39.9475C39.2979 37.5841 38.9725 38.3696 39.4319 38.8289L43.5048 42.9018C43.7896 43.1866 44.2513 43.1866 44.5361 42.9018L48.609 38.8289C49.0683 38.3696 48.743 37.5841 48.0934 37.5841Z" fill="#F5BE27"/>
</g>
<rect x="2.10376" y="2.47314" width="78" height="78" rx="39" stroke="#F5BE27" stroke-width="3"/>
<defs>
<clipPath id="clip0_201_51">
<rect width="35" height="35" fill="white" transform="translate(23.6038 23.9731)"/>
</clipPath>
</defs>
</svg>
