<svg width="82" height="81" viewBox="0 0 82 81" fill="none" xmlns="http://www.w3.org/2000/svg">
<g clip-path="url(#clip0_201_103)">
<path d="M58.0117 36.6283L56.4649 35.0815C55.8242 34.4408 54.7854 34.4408 54.1447 35.0815L53.758 35.4683L46.024 27.7343L46.4107 27.3476C47.0514 26.7068 47.0514 25.668 46.4107 25.0274L44.8639 23.4805C44.2232 22.8398 43.1844 22.8398 42.5437 23.4805L34.0363 31.9879C33.3956 32.6287 33.3956 33.6675 34.0363 34.3081L35.5831 35.8549C36.2238 36.4956 37.2626 36.4956 37.9033 35.8549L38.29 35.4682L40.9969 38.1751L35.457 43.7149L35.0703 43.3282C34.216 42.4739 32.831 42.4739 31.9767 43.3282L24.1329 51.1722C23.2786 52.0265 23.2786 53.4115 24.1329 54.2658L27.2265 57.3594C28.0808 58.2137 29.4658 58.2137 30.3201 57.3594L38.164 49.5155C39.0183 48.6612 39.0183 47.2762 38.164 46.4219L37.7773 46.0352L43.3171 40.4953L46.024 43.2022L45.6373 43.5889C44.9966 44.2297 44.9966 45.2685 45.6373 45.9091L47.1841 47.4559C47.8248 48.0966 48.8636 48.0966 49.5043 47.4559L58.0117 38.9485C58.6523 38.3078 58.6523 37.269 58.0117 36.6283Z" fill="#F5BE27"/>
</g>
<rect x="1.99219" y="1.5" width="78" height="78" rx="39" stroke="#F5BE27" stroke-width="3"/>
<defs>
<clipPath id="clip0_201_103">
<rect width="35" height="35" fill="white" transform="translate(23.4922 23)"/>
</clipPath>
</defs>
</svg>
