<svg width="82" height="82" viewBox="0 0 82 82" fill="none" xmlns="http://www.w3.org/2000/svg">
<rect x="2.13504" y="2.47314" width="78" height="78" rx="39" fill="white"/>
<g clip-path="url(#clip0_201_35)">
<path d="M45.51 46.9419C45.51 47.5462 45.0206 48.0356 44.4163 48.0356H37.8538C37.2495 48.0356 36.76 47.5462 36.76 46.9419V43.6606H23.635V53.5044C23.635 55.2544 25.1663 56.7856 26.9163 56.7856H55.3538C57.1038 56.7856 58.635 55.2544 58.635 53.5044V43.6606H45.51V46.9419ZM55.3538 32.7231H49.885V29.4419C49.885 27.6919 48.3538 26.1606 46.6038 26.1606H35.6663C33.9163 26.1606 32.385 27.6919 32.385 29.4419V32.7231H26.9163C25.1663 32.7231 23.635 34.2544 23.635 36.0044V41.4731H58.635V36.0044C58.635 34.2544 57.1038 32.7231 55.3538 32.7231ZM45.51 32.7231H36.76V30.5356H45.51V32.7231Z" fill="#F5BE27"/>
</g>
<rect x="2.13504" y="2.47314" width="78" height="78" rx="39" stroke="#F5BE27" stroke-width="3"/>
<defs>
<clipPath id="clip0_201_35">
<rect width="35" height="35" fill="white" transform="translate(23.635 23.9731)"/>
</clipPath>
</defs>
</svg>
