<svg width="40" height="40" viewBox="0 0 24 24" fill="none" xmlns="http://www.w3.org/2000/svg">
<path d="M12 6.375C10.8875 6.375 9.79994 6.7049 8.87492 7.32298C7.94989 7.94107 7.22892 8.81957 6.80318 9.84741C6.37744 10.8752 6.26604 12.0062 6.48308 13.0974C6.70013 14.1885 7.23585 15.1908 8.02252 15.9775C8.80919 16.7641 9.81147 17.2999 10.9026 17.5169C11.9938 17.734 13.1248 17.6226 14.1526 17.1968C15.1804 16.7711 16.0589 16.0501 16.677 15.1251C17.2951 14.2001 17.625 13.1125 17.625 12C17.625 10.5082 17.0324 9.07742 15.9775 8.02252C14.9226 6.96763 13.4918 6.375 12 6.375ZM12 15.75C11.2583 15.75 10.5333 15.5301 9.91661 15.118C9.29993 14.706 8.81928 14.1203 8.53545 13.4351C8.25162 12.7498 8.17736 11.9958 8.32205 11.2684C8.46675 10.541 8.8239 9.8728 9.34835 9.34835C9.8728 8.8239 10.541 8.46675 11.2684 8.32205C11.9958 8.17736 12.7498 8.25162 13.4351 8.53545C14.1203 8.81928 14.706 9.29993 15.118 9.91661C15.5301 10.5333 15.75 11.2583 15.75 12C15.7469 12.9936 15.3508 13.9456 14.6482 14.6482C13.9456 15.3508 12.9936 15.7469 12 15.75ZM17.1562 0.28125H6.84375C5.10327 0.28125 3.43407 0.972654 2.20336 2.20336C0.972654 3.43407 0.28125 5.10327 0.28125 6.84375V17.1562C0.28125 18.8967 0.972654 20.5659 2.20336 21.7966C3.43407 23.0273 5.10327 23.7188 6.84375 23.7188H17.1562C18.8967 23.7188 20.5659 23.0273 21.7966 21.7966C23.0273 20.5659 23.7188 18.8967 23.7188 17.1562V6.84375C23.7188 5.10327 23.0273 3.43407 21.7966 2.20336C20.5659 0.972654 18.8967 0.28125 17.1562 0.28125ZM21.8438 17.1562C21.8438 17.7718 21.7225 18.3814 21.4869 18.9501C21.2514 19.5188 20.9061 20.0355 20.4708 20.4708C20.0355 20.9061 19.5188 21.2514 18.9501 21.4869C18.3814 21.7225 17.7718 21.8438 17.1562 21.8438H6.84375C6.22818 21.8438 5.61864 21.7225 5.04992 21.4869C4.48121 21.2514 3.96446 20.9061 3.52919 20.4708C3.09391 20.0355 2.74863 19.5188 2.51306 18.9501C2.2775 18.3814 2.15625 17.7718 2.15625 17.1562V6.84375C2.15625 5.60055 2.65011 4.40826 3.52919 3.52919C4.40826 2.65011 5.60055 2.15625 6.84375 2.15625H17.1562C17.7718 2.15625 18.3814 2.2775 18.9501 2.51306C19.5188 2.74863 20.0355 3.09391 20.4708 3.52919C20.9061 3.96446 21.2514 4.48121 21.4869 5.04992C21.7225 5.61864 21.8438 6.22818 21.8438 6.84375V17.1562ZM19.5 5.90625C19.5 6.18438 19.4175 6.45626 19.263 6.68752C19.1085 6.91878 18.8889 7.09902 18.6319 7.20546C18.3749 7.31189 18.0922 7.33974 17.8194 7.28548C17.5466 7.23122 17.296 7.09729 17.0994 6.90062C16.9027 6.70395 16.7688 6.45338 16.7145 6.1806C16.6603 5.90781 16.6881 5.62506 16.7945 5.3681C16.901 5.11114 17.0812 4.89152 17.3125 4.737C17.5437 4.58247 17.8156 4.5 18.0938 4.5C18.4667 4.5 18.8244 4.64816 19.0881 4.91188C19.3518 5.1756 19.5 5.53329 19.5 5.90625Z" fill="white"/>
</svg>
